<?xml version="1.0" encoding="UTF-8" standalone="no"?>
<svg
   width="1053.39"
   height="320.0058"
   fill="none"
   version="1.1"
   id="svg1"
   sodipodi:docname="auth0.svg"
   inkscape:version="1.4 (e7c3feb100, 2024-10-09)"
   xmlns:inkscape="http://www.inkscape.org/namespaces/inkscape"
   xmlns:sodipodi="http://sodipodi.sourceforge.net/DTD/sodipodi-0.dtd"
   xmlns="http://www.w3.org/2000/svg"
   xmlns:svg="http://www.w3.org/2000/svg">
  <defs
     id="defs1" />
  <sodipodi:namedview
     id="namedview1"
     pagecolor="#505050"
     bordercolor="#eeeeee"
     borderopacity="1"
     inkscape:showpageshadow="0"
     inkscape:pageopacity="0"
     inkscape:pagecheckerboard="0"
     inkscape:deskcolor="#505050"
     inkscape:zoom="1.1665594"
     inkscape:cx="172.30155"
     inkscape:cy="353.17532"
     inkscape:window-width="3840"
     inkscape:window-height="2079"
     inkscape:window-x="0"
     inkscape:window-y="44"
     inkscape:window-maximized="1"
     inkscape:current-layer="svg1" />
  <path
     fill="#fffefa"
     d="M 16.910004,136.66677 A 123.91,123.91 0 0 0 119.1,34.466778 L 123.33,8.9567779 A 7.73,7.73 0 0 0 115.08,0.02677787 C 75.150004,3.1067779 37.520004,16.366778 16.700004,24.866778 A 26.89,26.89 0 0 0 4.4904671e-6,49.766773 v 80.629997 c 0,4.75 4.2300000095329,8.35 8.9200000095329,7.57 z M 144.36,34.466778 A 123.91,123.91 0 0 0 246.54,136.66677 l 7.99,1.3 a 7.65,7.65 0 0 0 8.92,-7.57 V 49.766773 A 27,27 0 0 0 246.75,24.866778 C 225.98,16.306778 188.3,3.1067779 148.37,0.02677787 a 7.7,7.7 0 0 0 -8.24,8.92000003 l 4.23,25.5300001 z M 246.59,161.97677 A 123.91,123.91 0 0 0 144.4,264.16678 l -5.22,49.79 c -0.47,4.49 4.49,7.67 8.25,5.17 0,0 0.05,0 0.1,-0.05 32.88,-22.19 107.93,-80.27001 115.34,-152.82001 a 5.46,5.46 0 0 0 -6.31,-5.9 l -9.92,1.62 z M 119.08,264.14678 A 123.91,123.91 0 0 0 16.880004,161.94677 l -10.6999995,-1.77 a 4.87,4.87 0 0 0 -5.63000001,5.27 C 7.6000045,238.41677 83.700004,296.86678 116.83,319.04678 a 4.9,4.9 0 0 0 7.57,-4.6 l -5.27,-50.36 z M 627.94,101.40677 h -24.97 a 2.68,2.68 0 0 0 -2.7,2.7 v 72.06 c 0,8.8 -1.46,16.54 -4.38,23.18 -2.92,6.65 -7.03,11.73 -12.38,15.2 -5.35,3.45 -11.66999,5.18 -18.96999,5.18 -10.49,0 -18.38,-3.46 -23.62,-10.38 -5.25,-6.92 -7.9,-16.86 -7.9,-29.78 v -75.46 a 2.68,2.68 0 0 0 -2.7,-2.7 h -25.24 a 2.68,2.68 0 0 0 -2.7,2.7 v 78.54 c 0,12.16 1.51,22.33 4.48,30.49 2.98,8.16 7.09,14.75 12.22,19.83 a 44.08,44.08 0 0 0 17.73,10.82001 67.22,67.22 0 0 0 20.92,3.24 c 10.48,0 19.18999,-2 26.15999,-6.06 a 61.21,61.21 0 0 0 13.08,-9.94001 c 1.51,-1.57 4.1,-0.7 4.54,1.4 l 1.95,10.65001 c 0.21,1.3 1.35,2.22 2.65,2.22 h 21.72 c 1.52,0 2.7,-1.2 2.7,-2.7 V 104.10677 a 2.68,2.68 0 0 0 -2.7,-2.7 z m 108.5,117.21 h -32.6 c -5.78,0 -9.89,-1.19 -12.21,-3.51 -2.32,-2.33 -3.51,-6.33 -3.51,-11.95 v -72.32 c 0,-1.51 1.19,-2.7 2.7,-2.7 h 44.21 c 1.52,0 2.7,-1.2 2.7,-2.7 v -21.3 a 2.68,2.68 0 0 0 -2.7,-2.7 h -41.5 a 5.42,5.42 0 0 1 -5.41,-5.409997 v -35.62 a 2.68,2.68 0 0 0 -2.7,-2.7 h -24.98 a 2.68,2.68 0 0 0 -2.7,2.7 V 206.29677 c 0,13.13 3.08,22.91 9.3,29.35 6.16,6.48001 16.1,9.67001 29.78,9.67001 h 39.62 c 1.51,0 2.7,-1.19 2.7,-2.7 v -21.30001 a 2.68,2.68 0 0 0 -2.7,-2.7 z m 126.96,-111.58 c -8.55,-4.87 -18.5,-7.299997 -29.95,-7.299997 -8.97,0 -17.24,1.779997 -24.76,5.349997 -5.4,2.6 -10.22,5.79 -14.32,9.62 a 2.66,2.66 0 0 1 -4.49,-1.94 V 51.256773 a 2.68,2.68 0 0 0 -2.7,-2.7 h -25.24 a 2.68,2.68 0 0 0 -2.7,2.7 V 242.59678 c 0,1.52 1.18,2.7 2.7,2.7 h 25.24 c 1.51,0 2.7,-1.18 2.7,-2.7 v -70.10001 c 0,-9.35 1.51,-17.46 4.49,-24.33 2.97,-6.8 7.24,-12.1 12.8,-15.89 5.52,-3.73 12.06,-5.62 19.52,-5.62 7.46,0 13.4,1.68 18.27,5.08 4.87,3.35 8.54,8.1 10.97,14.22 2.44,6.1 3.68,13.35 3.68,21.78 v 74.86001 c 0,1.52 1.19,2.7 2.7,2.7 h 24.97 c 1.52,0 2.7,-1.18 2.7,-2.7 v -77.40001 c 0,-14.6 -2.26,-26.76 -6.86,-36.38 -4.6,-9.67 -11.13,-16.92 -19.67,-21.78 h -0.06 z m 181.29,-15.719997 c -5.78,-14.21 -14.05,-25.18 -24.75,-32.86 -10.71,-7.67 -23.52,-11.51 -38.49,-11.51 -14.97,0 -27.57,3.84 -38.38,11.51 -10.75,7.68 -19.08,18.65 -24.86,32.86 -5.78,14.279997 -8.7,31.299997 -8.7,51.139997 v 8.97 c 0,20.06 2.92,37.24 8.7,51.57 5.78,14.32 14.1,25.24 24.86,32.75 10.76,7.52001 23.57,11.25001 38.38,11.25001 14.81,0 27.84,-3.73 38.49,-11.25001 10.64,-7.51 18.91,-18.43 24.75,-32.75 5.79,-14.33 8.7,-31.51 8.7,-51.57 v -8.97 c 0,-19.84 -2.91,-36.92 -8.7,-51.139997 z M 940.16,154.88677 v -11.3 c 0,-22.86 3.56,-40.37 10.7,-52.539997 7.13,-12.16 17.35,-18.26 30.64,-18.26 12.38,0 22.06,5.24 29.08,15.78 2.71,3.78 0.38,8.6 -0.75,9.89 l -55.4,61.779997 c -4.92,5.52 -14,2.11 -14.17,-5.24 l -0.1,-0.1 z m 82.59,-4.54 c 0,22.7 -3.57,40.1 -10.71,52.27 -7.13,12.16 -17.35,18.27 -30.64,18.27 -12.22,0 -21.84,-5.14 -28.81,-15.4 -2.7,-3.74 -0.38,-8.5 0.75,-9.84 l 55.19,-61.9 a 8.1,8.1 0 0 1 14.16,5.25 v 11.4 z m -537.71999,68.56 h -0.75 c -3.03,0 -5.14,-0.65 -6.49,-1.95 -1.3,-1.3 -1.95,-3.73 -1.95,-7.3 v -57.61 c 0,-17.03 -5.24,-30 -15.73,-38.92 -10.48,-8.92 -25.18,-13.349997 -44.1,-13.349997 -12,0 -22.54,1.889997 -31.62,5.619997 -9.08,3.73 -16.33001,9.03 -21.78001,15.9 a 44.64,44.64 0 0 0 -9.14,20.9 2.76,2.76 0 0 0 2.7,3.14 h 24.54001 a 2.7,2.7 0 0 0 2.6,-2.1 c 1.46,-5.4 4.64,-9.84 9.67,-13.25 5.62,-3.84 12.81,-5.78 21.62,-5.78 9.73,0 17.35,2.27 22.76,6.86 5.4,4.6 8.16,10.92 8.16,18.98 v 6 c 0,1.51 -1.19,2.7 -2.7,2.7 h -32.7 c -19.84,0 -34.98,4 -45.40001,11.95 -10.38,7.94 -15.63,19.34 -15.63,34.16 0,8.8 2.27,16.37 6.76,22.75 4.48,6.38 10.7,11.2 18.70001,14.49001 7.95,3.3 17.08,4.92 27.4,4.92 13.52,0 24.5,-3.14 33.03,-9.40001 3.73,-2.76 7.08,-5.9 10,-9.3 1.4,-1.68 4.16,-1.09 4.65,1.02 0.76,3.57 2.21,6.7 4.32,9.24 3.73,4.50001 10.7,6.76001 20.81,6.76001 h 13.03 c 1.51,0 2.7,-1.19 2.7,-2.7 v -19.24001 c 0,-3.68 -1.19,-4.5 -5.4,-4.5 h -0.06 z m -39.56,-31.73 c 0,6.92 -1.57,13.19 -4.76,18.7 a 33.14,33.14 0 0 1 -13.51,12.92 c -5.79,3.08 -12.87,4.65 -21.08,4.65 -8.22,0 -14.49,-1.95 -19.25,-5.78 -4.75,-3.84 -7.18,-8.76 -7.18,-14.76 0,-7.3 2.48,-12.76 7.45,-16.32 4.98,-3.57 12.11,-5.36 21.52,-5.36 h 36.8 v 5.95 z"
     id="path1"
     style="stroke-width:10" />
</svg>
