<?xml version="1.0" encoding="UTF-8" standalone="no"?>
<svg
   width="580.00342"
   height="510.68063"
   version="1.1"
   id="svg1"
   sodipodi:docname="bluesky.svg"
   inkscape:version="1.4 (e7c3feb100, 2024-10-09)"
   xmlns:inkscape="http://www.inkscape.org/namespaces/inkscape"
   xmlns:sodipodi="http://sodipodi.sourceforge.net/DTD/sodipodi-0.dtd"
   xmlns="http://www.w3.org/2000/svg"
   xmlns:svg="http://www.w3.org/2000/svg">
  <defs
     id="defs1" />
  <sodipodi:namedview
     id="namedview1"
     pagecolor="#505050"
     bordercolor="#eeeeee"
     borderopacity="1"
     inkscape:showpageshadow="0"
     inkscape:pageopacity="0"
     inkscape:pagecheckerboard="0"
     inkscape:deskcolor="#505050"
     inkscape:zoom="1.8811321"
     inkscape:cx="289.71916"
     inkscape:cy="255.1655"
     inkscape:window-width="3840"
     inkscape:window-height="2079"
     inkscape:window-x="0"
     inkscape:window-y="44"
     inkscape:window-maximized="1"
     inkscape:current-layer="svg1" />
  <path
     d="m 125.7234,34.375088 c 66.496,49.921 138.02,151.140002 164.28,205.460002 26.262,-54.316 97.782,-155.540002 164.28,-205.460002 47.98,-36.0210003 125.72,-63.892 125.72,24.795 0,17.712 -10.155,148.790002 -16.111,170.070002 -20.703,73.984 -96.144,92.854 -163.25,81.433 117.3,19.964 147.14,86.092 82.697,152.22 -122.39,125.59 -175.91,-31.511 -189.63,-71.766 -2.514,-7.3797 -3.6904,-10.832 -3.7077,-7.8964 -0.0174,-2.9357 -1.1937,0.51669 -3.7077,7.8964 -13.714,40.255 -67.233,197.36 -189.63,71.766 -64.444,-66.128 -34.605,-132.26 82.697,-152.22 -67.108,11.421 -142.55,-7.4491 -163.25,-81.433 C 10.1548,207.95809 0,76.880088 0,59.170088 c 0,-88.687 77.742,-60.8160003 125.72,-24.795 z"
     fill="#1185fe"
     id="path1"
     style="fill:#ffffff;fill-opacity:1" />
</svg>
