<?xml version="1.0" encoding="UTF-8" standalone="no"?>
<!-- Created with Inkscape (http://www.inkscape.org/) -->

<svg
   width="513.70013mm"
   height="96.592346mm"
   viewBox="0 0 513.70013 96.592346"
   version="1.1"
   id="svg1"
   inkscape:version="1.4 (e7c3feb100, 2024-10-09)"
   sodipodi:docname="jumpcloud.svg"
   xmlns:inkscape="http://www.inkscape.org/namespaces/inkscape"
   xmlns:sodipodi="http://sodipodi.sourceforge.net/DTD/sodipodi-0.dtd"
   xmlns="http://www.w3.org/2000/svg"
   xmlns:svg="http://www.w3.org/2000/svg">
  <sodipodi:namedview
     id="namedview1"
     pagecolor="#505050"
     bordercolor="#eeeeee"
     borderopacity="1"
     inkscape:showpageshadow="0"
     inkscape:pageopacity="0"
     inkscape:pagecheckerboard="0"
     inkscape:deskcolor="#505050"
     inkscape:document-units="mm"
     inkscape:zoom="0.88818042"
     inkscape:cx="1018.9371"
     inkscape:cy="206.03922"
     inkscape:window-width="3840"
     inkscape:window-height="2079"
     inkscape:window-x="0"
     inkscape:window-y="44"
     inkscape:window-maximized="1"
     inkscape:current-layer="layer1" />
  <defs
     id="defs1" />
  <g
     inkscape:label="Layer 1"
     inkscape:groupmode="layer"
     id="layer1"
     transform="translate(164.80769,-94.14355)">
    <path
       d="m -140.15745,169.0191 v -51.0224 h -15.59376 v 53.2228 c 0,3.5716 -1.14802,5.96315 -4.68771,5.96315 -1.2313,0.01 -2.46036,-0.1065 -3.66721,-0.3505 l -0.70156,13.42525 c 1.66639,0.276 3.34993,0.436 5.03846,0.4785 14.47767,-0.1275 19.73931,-8.51445 19.73931,-21.71645 z m 46.366635,3.1889 h 15.24291 V 117.7415 H -94.04587 v 30.29465 c 0.1557,1.49055 -0.01,2.9971 -0.48525,4.41845 -0.4756,1.4212 -1.24989,2.724 -2.27118,3.82085 -1.021295,1.0968 -2.26576,1.96215 -3.64953,2.5376 -1.38377,0.5756 -2.8747,0.84785 -4.37264,0.7988 -5.74,0 -8.25923,-3.76295 -8.25923,-9.4073 V 117.7415 h -15.59375 v 36.83185 c 0,11.83085 5.29365,19.1335 15.59375,19.1335 8.61007,0 15.274925,-5.51685 18.368035,-15.9446 h 1.148025 z M -51.9205,141.91345 c -0.127,-1.4908 0.06335,-2.9915 0.558665,-4.40335 0.49515,-1.41195 1.284025,-2.7027 2.314575,-3.7875 1.03042,-1.08465 2.279255,-1.9387 3.66382,-2.5057 1.384565,-0.5669 2.87364,-0.834 4.369065,-0.78345 5.61247,0 8.25857,3.7948 8.25857,9.3116 V 172.208 h 15.59454 v -30.29455 c -0.14155,-1.483 0.0345,-2.97905 0.51726,-4.38865 0.48155,-1.40955 1.258095,-2.70035 2.278065,-3.78645 1.01997,-1.086 2.25954,-1.94255 3.635375,-2.51235 1.377155,-0.5699 2.85882,-0.84005 4.347105,-0.79255 5.740135,0 8.26029,3.7948 8.26029,9.3116 V 172.208 h 15.72022 v -36.8955 c 0,-11.83085 -5.38824,-19.1335 -15.943795,-19.1335 -8.961435,0 -15.147395,5.6125 -18.113375,16.26345 h -1.27529 c -0.669395,-10.2046 -5.38956,-16.26345 -15.020395,-16.26345 -8.60941,0 -15.146735,5.48495 -18.23998,15.94445 H -52.14368 V 117.5502 h -15.24304 v 54.4027 h 15.593745 z m 133.07311,3.1889 c 0,-18.7189 -6.791855,-28.70015 -18.71927,-28.70015 -8.70479,0 -14.6685,5.74 -17.53923,15.2429 H 43.87414 V 117.8692 H 28.249175 v 71.814 H 43.87414 v -31.66575 h 0.89297 c 2.774155,9.56665 8.60954,15.94445 17.66623,15.94445 11.830845,-0.223 18.911095,-10.20445 18.911095,-28.89145 z m -26.277095,14.8922 c -6.664855,0 -11.001375,-5.03845 -11.001375,-12.7557 v -4.273 c 0,-7.781 4.24127,-12.7557 11.1297,-12.7557 7.4295,0 10.7778,4.7196 10.7778,14.7009 0,9.98125 -3.21998,15.0516 -10.7778,15.0516 z m 70.442665,-20.0582 14.44625,-2.7743 c -1.9447,-13.1703 -8.83311,-20.8555 -25.00047,-20.8555 -17.315665,0 -27.871215,10.87425 -27.871215,29.3698 0,18.4957 10.7778,28.09425 27.966465,28.09425 15.49796,0 23.18277,-7.9085 25.03222,-20.53655 l -14.34967,-3.44395 c -1.14829,5.61235 -3.79413,10.332 -10.7778,10.332 -8.03672,0 -11.92742,-5.6125 -11.92742,-15.2748 0,-10.30025 4.46484,-14.8922 11.70384,-14.8922 7.239,0 9.53426,4.08185 10.90613,9.94935 z m 39.09615,-41.4557 h -15.4662 v 73.66355 h 15.59455 z m 36.7361,75.25805 c 17.31565,0 27.8712,-10.9061 27.8712,-28.7001 0,-17.7942 -10.90615,-28.70015 -27.8712,-28.70015 -16.9651,0 -28.12525,10.55525 -28.12525,28.70015 0,18.14485 10.5873,28.7001 28.25355,28.7001 z m 0,-44.3895 c 8.61085,0 12.3732,5.61245 12.3732,15.4662 0,9.8536 -3.6671,15.6255 -12.3732,15.6255 -8.7048,0 -12.405,-5.74 -12.405,-15.6255 0,-9.88565 3.79545,-15.4662 12.405,-15.4662 z m 71.24035,42.795 h 15.24265 v -54.4027 h -15.68845 v 30.29465 c 0.151,1.49225 -0.02,2.99945 -0.4985,4.4207 -0.479,1.4212 -1.2568,2.72345 -2.2807,3.81965 -1.02395,1.09615 -2.27015,1.96095 -3.65525,2.53615 -1.3851,0.5752 -2.87735,0.84775 -4.3762,0.7992 -5.7084,0 -8.25895,-3.76295 -8.25895,-9.4073 V 117.7415 h -15.59455 v 36.83185 c 0,11.83085 5.2943,19.1335 15.59455,19.1335 8.60955,0 15.2744,-5.51685 18.36735,-15.9446 h 1.1483 z m 60.9084,0 h 15.59325 V 98.48065 h -15.625 v 33.03695 h -1.02125 c -2.86945,-9.5667 -8.73655,-15.24295 -17.4427,-15.24295 -11.92605,0 -18.8145,10.20445 -18.8145,29.11465 0,18.36815 6.88845,28.3494 18.59095,28.3494 9.0567,0 15.0204,-6.37775 17.7628,-15.94455 h 0.9247 z m -11.00135,-12.18155 c -7.68615,0 -11.03445,-4.81525 -11.03445,-14.57335 0,-9.758 3.44485,-15.0196 10.9061,-15.0196 6.88845,0 11.1297,5.0383 11.1297,12.9787 v 4.30505 c -0.03,7.49395 -4.46485,12.3092 -11.00135,12.3092 z m -461.68998,-57.4003 c 0,1.66505 -0.4937,3.29275 -1.41882,4.6772 -0.92499,1.3844 -2.23983,2.46355 -3.77812,3.10065 -1.53842,0.63725 -3.23109,0.80395 -4.8641,0.479 -1.63314,-0.325 -3.13318,-1.12675 -4.31057,-2.304 -1.17738,-1.1774 -1.9792,-2.67745 -2.30404,-4.3106 -0.32485,-1.633 -0.1581,-3.3258 0.4791,-4.8641 0.63719,-1.5383 1.71624,-2.8531 3.10069,-3.77825 1.38449,-0.92495 3.01207,-1.4187 4.67722,-1.4187 1.10557,0 2.20028,0.218 3.2217,0.64085 1.02143,0.423 1.94945,1.0431 2.73117,1.82495 0.78171,0.7817 1.40189,1.70975 1.82496,2.73115 0.42305,1.02145 0.64082,2.11615 0.64082,3.2217 z"
       fill="#002B49"
       id="path1"
       style="fill:#ffffff;fill-opacity:1;stroke-width:1.32291" />
  </g>
</svg>
