<?xml version="1.0" encoding="UTF-8" standalone="no"?>
<svg
   version="1.1"
   viewBox="0 0 3334.85 717.40979"
   id="svg4"
   sodipodi:docname="microsoft_entra.svg"
   width="3334.8501"
   height="717.40979"
   inkscape:version="1.4 (e7c3feb100, 2024-10-09)"
   xmlns:inkscape="http://www.inkscape.org/namespaces/inkscape"
   xmlns:sodipodi="http://sodipodi.sourceforge.net/DTD/sodipodi-0.dtd"
   xmlns="http://www.w3.org/2000/svg"
   xmlns:svg="http://www.w3.org/2000/svg">
  <defs
     id="defs4" />
  <sodipodi:namedview
     id="namedview4"
     pagecolor="#505050"
     bordercolor="#eeeeee"
     borderopacity="1"
     inkscape:showpageshadow="0"
     inkscape:pageopacity="0"
     inkscape:pagecheckerboard="0"
     inkscape:deskcolor="#505050"
     inkscape:zoom="0.50000001"
     inkscape:cx="929.99999"
     inkscape:cy="1072"
     inkscape:window-width="3840"
     inkscape:window-height="2079"
     inkscape:window-x="0"
     inkscape:window-y="44"
     inkscape:window-maximized="1"
     inkscape:current-layer="svg4" />
  <path
     fill="#737373"
     d="m 1362.85,142.98018 v 432 h -75 v -339 h -1 l -134,339 h -50 l -136.99997,-339 h -1 v 339 h -69 v -432 H 1003.85 l 124,320 h 2 l 131,-320 z m 62,33 c 0,-12 4,-22 13,-30 9,-8 19,-12 31,-12 13,0 24,4 32,12 8,8 13,18 13,30 0,12 -4,22 -13,30 -9,8 -19,12 -32,12 -13,0 -23,-4 -31,-12 -8,-9 -13,-19 -13,-30 z m 81,89 v 310 h -73 v -310 z m 221,257 c 11,0 23,-2 36,-8 13,-5 25,-12 36,-20 v 68 c -12,7 -25,12 -40,15 -15,3 -31,5 -49,5 -46,0 -83,-14 -111,-43 -29,-29 -43,-66 -43,-110 0,-50 15,-91 44,-123 29,-32 70,-48 124,-48 14,0 28,2 41,5 14,3 25,8 33,12 v 70 c -11,-8 -23,-15 -34,-19 -12,-4 -24,-7 -36,-7 -29,0 -52,9 -70,28 -18,19 -26,44 -26,76 0,31 9,56 26,73 17,17 40,26 69,26 z m 279,-262 c 6,0 11,0 16,1 5,1 9,2 12,3 v 74 c -4,-3 -9,-6 -17,-8 -8,-2 -16,-4 -27,-4 -18,0 -33,8 -45,23 -12,15 -19,38 -19,70 v 156 h -73 v -310 h 73 v 49 h 1 c 7,-17 17,-30 30,-40 14,-9 30,-14 49,-14 z m 32,165 c 0,-51 15,-92 43,-122 29,-30 69,-45 120,-45 48,0 86,14 113,43 27,29 41,68 41,117 0,50 -15,90 -43,120 -29,30 -68,45 -118,45 -48,0 -86,-14 -114,-42 -28,-29 -42,-68 -42,-116 z m 76,-3 c 0,32 7,57 22,74 15,17 36,26 63,26 26,0 47,-8 61,-26 14,-17 21,-42 21,-76 0,-33 -7,-58 -21,-76 -14,-17 -35,-26 -60,-26 -27,0 -47,9 -62,27 -17,19 -24,44 -24,77 z m 350,-75 c 0,10 3,19 10,25 7,6 21,13 44,22 29,12 50,25 61,39 12,15 18,32 18,53 0,29 -11,52 -34,70 -22,18 -53,26 -91,26 -13,0 -27,-2 -43,-5 -16,-3 -29,-7 -40,-12 v -72 c 13,9 28,17 43,22 15,5 29,8 42,8 16,0 29,-2 36,-7 8,-5 12,-12 12,-23 0,-10 -4,-18 -12,-26 -8,-7 -24,-15 -46,-24 -27,-11 -46,-24 -57,-38 -11,-14 -17,-32 -17,-54 0,-28 11,-51 33,-69 22,-18 51,-27 86,-27 11,0 23,1 36,4 13,3 25,6 34,9 v 71 c -10,-6 -21,-12 -34,-17 -13,-5 -26,-7 -38,-7 -14,0 -25,3 -32,8 -7,7 -11,14 -11,24 z m 164,78 c 0,-51 15,-92 43,-122 29,-30 69,-45 120,-45 48,0 86,14 113,43 27,29 41,68 41,117 0,50 -15,90 -43,120 -29,30 -68,45 -118,45 -48,0 -86,-14 -114,-42 -27,-29 -42,-68 -42,-116 z m 76,-3 c 0,32 7,57 22,74 15,17 36,26 63,26 26,0 47,-8 61,-26 14,-17 21,-42 21,-76 0,-33 -7,-58 -21,-76 -14,-17 -35,-26 -60,-26 -27,0 -47,9 -62,27 -16,19 -24,44 -24,77 z m 484,-97 h -109 v 250 h -74 v -250 h -52 v -60 h 52 v -43 c 0,-32 11,-59 32,-80 21,-21 48,-31 81,-31 9,0 17,1 24,1 7,0 13,2 18,4 v 63 c -2,-1 -7,-3 -13,-5 -6,-2 -13,-3 -21,-3 -15,0 -27,5 -35,14 -8,9 -12,24 -12,42 v 37 h 109 v -70 l 73,-22 v 92 h 74 v 60 h -74 v 145 c 0,19 4,32 10,40 7,8 18,12 33,12 4,0 9,-1 15,-3 6,-2 11,-4 15,-7 v 60 c -5,3 -12,5 -23,7 -11,2 -21,3 -32,3 -31,0 -54,-8 -69,-24 -15,-16 -23,-41 -23,-74 z"
     id="path1"
     style="fill:#ffffff;fill-opacity:1;stroke-width:10" />
  <path
     d="m 170.4744,584.33042 c 17.3972,10.85082 46.3178,22.91228 76.8974,22.91228 27.8445,0 53.7161,-8.07086 75.1487,-21.83617 0,0 0.045,0 0.09,-0.045 l 80.9328,-50.57741 V 717.4098 c -12.8237,0 -25.7371,-3.49737 -36.9466,-10.49212 z"
     fill="#225086"
     id="path1-3"
     style="stroke-width:44.8381" />
  <path
     d="M 352.1136,22.73293 15.827701,402.06347 c -25.9613,29.32413 -19.1906995,73.62417 14.4827,94.65325 0,0 124.470699,77.79415 140.163999,87.6137 17.3972,10.85082 46.3178,22.91228 76.8974,22.91228 27.8445,0 53.7161,-8.07086 75.1487,-21.83617 0,0 0.045,0 0.09,-0.045 L 403.543,534.78429 207.8694,412.46591 403.5878,191.68299 V 0 c 0,0 0,0 0,0 -19.0114,0 -37.9779,7.57764 -51.4293,22.73293 z"
     fill="#66ddff"
     id="path2"
     style="stroke-width:44.8381" />
  <polygon
     points="9.001,12.927 9.001,5.276 9,5.275 4.636,10.199 4.688,10.231 9,12.927 "
     fill="#cbf8ff"
     id="polygon2"
     transform="matrix(44.838124,0,0,44.838124,-1.9852281e-4,-44.83813)" />
  <path
     d="m 776.77548,496.71672 c 33.67344,-21.02908 40.44399,-65.32912 14.48272,-94.65325 L 570.60979,153.16704 c -17.80074,-8.29506 -37.7537,-13.0479 -58.87246,-13.0479 -41.47523,0 -78.55633,17.89042 -103.21733,46.00392 l -4.8874,5.51509 v 0 c 0,0 195.67359,220.78292 195.67359,220.78292 v 0 c 0,0 0,0 0,0 L 403.5878,534.73945 v 182.62568 c 12.8685,0 25.6922,-3.49737 36.9018,-10.49212 L 776.77548,496.67189 Z"
     fill="#074793"
     id="path3"
     style="stroke-width:44.8381" />
  <path
     d="m 403.5878,0 v 191.68299 c 0,0 4.8874,-5.51509 4.8874,-5.51509 24.6609,-28.11351 61.742,-46.00392 103.21729,-46.00392 21.1636,0 41.07173,4.79768 58.87246,13.0479 L 454.9274,22.77776 C 441.5208,7.62248 422.5095,0.04484 403.543,0.04484 Z"
     fill="#0294e4"
     id="path4"
     style="stroke-width:44.8381" />
  <polygon
     points="9.001,12.926 13.365,10.199 9.001,5.276 "
     fill="#96bcc2"
     id="polygon4"
     transform="matrix(44.838124,0,0,44.838124,-1.9852281e-4,-44.83813)" />
</svg>
