<?xml version="1.0" encoding="UTF-8" standalone="no"?>
<svg
   aria-labelledby="okta-logo"
   viewBox="0 0 1092.0277 360"
   version="1.1"
   id="svg2"
   sodipodi:docname="okta.svg"
   inkscape:version="1.4 (e7c3feb100, 2024-10-09)"
   width="1092.0277"
   height="360"
   xmlns:inkscape="http://www.inkscape.org/namespaces/inkscape"
   xmlns:sodipodi="http://sodipodi.sourceforge.net/DTD/sodipodi-0.dtd"
   xmlns="http://www.w3.org/2000/svg"
   xmlns:svg="http://www.w3.org/2000/svg">
  <defs
     id="defs2" />
  <sodipodi:namedview
     id="namedview2"
     pagecolor="#505050"
     bordercolor="#eeeeee"
     borderopacity="1"
     inkscape:showpageshadow="0"
     inkscape:pageopacity="0"
     inkscape:pagecheckerboard="0"
     inkscape:deskcolor="#505050"
     inkscape:zoom="1.1322708"
     inkscape:cx="-114.81352"
     inkscape:cy="532.5581"
     inkscape:window-width="3840"
     inkscape:window-height="2079"
     inkscape:window-x="0"
     inkscape:window-y="44"
     inkscape:window-maximized="1"
     inkscape:current-layer="svg2" />
  <path
     fill="current"
     d="m 989.62774,236.6 c -30.5,0 -52,-23.8 -52,-55.1 0,-31.3 21.5,-55.1 52,-55.1 30.49996,0 51.39996,23.8 51.39996,55.1 0,31.3 -21.2,55.1 -51.39996,55.1 z m -4.9,32.8 c 24.59996,0 45.49996,-9.6 58.69996,-29.7 2.5,19.5 16.6,26.6 34.4,26.6 h 14.2 v -30.9 h -6.1 c -10.1,0 -12.6,-4.9 -12.6,-16.4 V 96.8 h -32.6 v 25.1 c -11.1,-17.6 -32,-28.2 -55.99996,-28.2 -42.8,0 -82.1,35.9 -82.1,87.8 0,51.9 39.4,87.8 82.1,87.8 z m -167.9,-42.4 c 0,27.8 17.2,39.3 37.8,39.3 h 39.7 v -30.9 h -28.9 c -12,0 -14.5,-4.6 -14.5,-16.4 v -91.3 h 43.4 V 96.8 h -43.4 V 39.9 h -34.1 z m -155.3,39.3 h 34.1 v -72.7 h 11.4 l 58.1,72.7 h 43.1 l -74.1,-92.2 56.9,-77.3 h -38.4 l -46.5,65.3 h -10.5 V 39.9 h -34.1 z M 550.82775,93.7 c -47.7,0 -87,35.9 -87,87.8 0,51.9 39.4,87.8 87,87.8 47.59999,0 86.99999,-35.9 86.99999,-87.8 0,-51.9 -39.4,-87.8 -86.99999,-87.8 z m 0,142.9 c -30.5,0 -52.00001,-23.8 -52.00001,-55.1 0,-31.3 21.50001,-55.1 52.00001,-55.1 30.5,0 51.99999,23.8 51.99999,55.1 0,31.3 -21.49999,55.1 -51.99999,55.1 z"
     id="path1"
     style="fill:#ffffff;fill-opacity:1;stroke-width:10" />
  <path
     fill="current"
     fill-rule="evenodd"
     d="m 197.92774,2.5 -7.4,91.2 c -3.5,-0.4 -7,-0.6 -10.6,-0.6 -4.5,0 -8.9,0.3 -13.2,1 l -4.2,-44.2 c -0.1,-1.4 1,-2.6 2.4,-2.6 h 7.5 l -3.6,-44.7 c -0.1,-1.4 1,-2.6 2.3,-2.6 h 24.5 c 1.4,0 2.5,1.2 2.3,2.6 z m -61.8,4.5 c -0.4,-1.3 -1.8,-2.1 -3.1,-1.6 l -23,8.4 c -1.3,0.5 -1.9,2 -1.3,3.2 l 18.7,40.8 -7.1,2.6 c -1.3,0.5 -1.9,2 -1.3,3.2 l 19.1,40.1 c 6.9,-3.8 14.4,-6.7 22.3,-8.5 L 136.22774,7 Z M 79.727741,32.4 132.62774,107 c -6.7,4.4 -12.8,9.6 -18,15.6 L 82.927741,91.4 c -1,-1 -0.9,-2.6 0.1,-3.5 l 5.8,-4.8 -31.5,-31.9 c -1,-1 -0.9,-2.6 0.2,-3.5 l 18.7,-15.7 c 1.1,-0.9 2.6,-0.7 3.4,0.4 z m -44.4,43.2 c -1.1,-0.8 -2.7,-0.4 -3.4,0.8 l -12.2,21.2 c -0.7,1.2 -0.2,2.7 1,3.3 l 40.6,19.2 -3.8,6.5 a 2.3,2.3 0 0 0 1.1,3.3 l 40.4,18.5 c 2.899999,-7.5 6.799999,-14.5 11.599999,-20.8 z M 5.4277412,133.2 c 0.2,-1.4 1.6,-2.2 2.9,-1.9 l 88.4999998,23.1 c -2.3,7.5 -3.6,15.4 -3.8,23.6 l -44.3,-3.6 a 2.3,2.3 0 0 1 -2.1,-2.8 l 1.3,-7.4 L 3.2277412,160 c -1.4,-0.1 -2.30000004,-1.4 -2.1,-2.8 l 4.2,-24.1 z m -3.3,59.8 c -1.40000004,0.1 -2.30000004,1.4 -2.10000004,2.8 l 4.30000004,24.1 c 0.2,1.4 1.6,2.2 2.9,1.9 l 43.3999998,-11.3 1.3,7.4 c 0.2,1.4 1.6,2.2 2.9,1.9 l 42.8,-11.8 c -2.5,-7.4 -4.1,-15.3 -4.5,-23.4 L 2.0277412,193 Z m 14.1999998,63.4 a 2.36,2.36 0 0 1 1,-3.3 l 82.6,-39.2 c 3.099999,7.4 7.299999,14.3 12.299999,20.5 l -36.199999,25.8 c -1.1,0.8 -2.7,0.5 -3.4,-0.7 l -3.8,-6.6 -36.9,25.5 c -1.1,0.8 -2.7,0.4 -3.4,-0.8 l -12.3,-21.2 z M 116.42774,239.2 52.127741,304.3 c -1,1 -0.9,2.6 0.2,3.5 l 18.8,15.7 c 1.1,0.9 2.6,0.7 3.4,-0.4 l 25.999999,-36.6 5.8,4.9 c 1.1,0.9 2.7,0.7 3.5,-0.5 l 25.2,-36.6 c -6.8,-4.2 -13.1,-9.3 -18.5,-15.1 z m -12.7,104.5 a 2.34,2.34 0 0 1 -1.3,-3.2 l 38.1,-83.2 c 7,3.6 14.6,6.3 22.5,7.8 l -11.2,43 c -0.3,1.3 -1.8,2.1 -3.1,1.6 l -7.1,-2.6 -11.9,43.3 c -0.4,1.3 -1.8,2.1 -3.1,1.6 l -23,-8.4 z m 65.6,-77.5 -7.4,91.2 c -0.1,1.4 1,2.6 2.3,2.6 h 24.5 c 1.4,0 2.5,-1.2 2.3,-2.6 l -3.6,-44.7 h 7.5 c 1.4,0 2.5,-1.2 2.4,-2.6 l -4.2,-44.2 c -4.3,0.7 -8.7,1 -13.2,1 -3.6,0 -7.1,-0.2 -10.6,-0.7 z m 88.2,-246.9 c 0.6,-1.3 0,-2.7 -1.3,-3.2 l -23,-8.4 c -1.3,-0.5 -2.7,0.3 -3.1,1.6 l -11.9,43.3 -7.1,-2.6 c -1.3,-0.5 -2.7,0.3 -3.1,1.6 l -11.2,43 c 8,1.6 15.5,4.3 22.5,7.8 z m 50.2,36.3 -64.3,65.1 a 87.28,87.28 0 0 0 -18.5,-15.1 l 25.2,-36.6 c 0.8,-1.1 2.4,-1.4 3.5,-0.5 l 5.8,4.9 26,-36.6 c 0.8,-1.1 2.4,-1.3 3.4,-0.4 l 18.8,15.7 c 1.1,0.9 1.1,2.5 0.2,3.5 z m 34.8,51.2 c 1.3,-0.6 1.7,-2.1 1,-3.3 l -12.3,-21.2 a 2.46,2.46 0 0 0 -3.4,-0.8 l -36.9,25.5 -3.8,-6.5 c -0.7,-1.2 -2.3,-1.6 -3.4,-0.7 l -36.2,25.8 c 5,6.2 9.1,13.1 12.3,20.5 l 82.6,-39.2 z m 13,33.2 4.2,24.1 c 0.2,1.4 -0.7,2.6 -2.1,2.8 l -91.1,8.5 c -0.4,-8.2 -2,-16 -4.5,-23.4 l 42.8,-11.8 c 1.3,-0.4 2.7,0.5 2.9,1.9 l 1.3,7.4 43.4,-11.3 c 1.3,-0.3 2.7,0.5 2.9,1.9 z m -4.1,88.5 c 1.3,0.3 2.7,-0.5 2.9,-1.9 l 4.2,-24.1 a 2.42,2.42 0 0 0 -2.1,-2.8 l -44.7,-4.2 1.3,-7.4 a 2.42,2.42 0 0 0 -2.1,-2.8 l -44.3,-3.6 c -0.2,8.2 -1.5,16.1 -3.8,23.6 l 88.5,23.1 z m -23.6,55 c -0.7,1.2 -2.3,1.5 -3.4,0.8 l -75.3,-52 c 4.8,-6.3 8.7,-13.3 11.6,-20.8 l 40.4,18.5 c 1.3,0.6 1.8,2.1 1.1,3.3 l -3.8,6.5 40.6,19.2 c 1.2,0.6 1.7,2.1 1,3.3 z m -100.7,-30.7 52.9,74.6 c 0.8,1.1 2.4,1.3 3.4,0.4 l 18.7,-15.7 c 1.1,-0.9 1.1,-2.5 0.2,-3.5 l -31.5,-31.9 5.8,-4.8 c 1.1,-0.9 1.1,-2.5 0.1,-3.5 l -31.7,-31.2 c -5.3,6 -11.3,11.3 -18,15.6 z m -0.5,101.6 c -1.3,0.5 -2.7,-0.3 -3.1,-1.6 l -24.2,-88.2 c 7.9,-1.8 15.4,-4.7 22.3,-8.5 l 19.1,40.1 c 0.6,1.3 0,2.8 -1.3,3.2 l -7.1,2.6 18.7,40.8 c 0.6,1.3 0,2.7 -1.3,3.2 l -23,8.4 z"
     id="path2"
     style="fill:#ffffff;fill-opacity:1;stroke-width:10" />
  <path
     fill="current"
     d="m 989.62774,236.6 c -30.5,0 -52,-23.8 -52,-55.1 0,-31.3 21.5,-55.1 52,-55.1 30.49996,0 51.39996,23.8 51.39996,55.1 0,31.3 -21.2,55.1 -51.39996,55.1 z m -4.9,32.8 c 24.59996,0 45.49996,-9.6 58.69996,-29.7 2.5,19.5 16.6,26.6 34.4,26.6 h 14.2 v -30.9 h -6.1 c -10.1,0 -12.6,-4.9 -12.6,-16.4 V 96.8 h -32.6 v 25.1 c -11.1,-17.6 -32,-28.2 -55.99996,-28.2 -42.8,0 -82.1,35.9 -82.1,87.8 0,51.9 39.4,87.8 82.1,87.8 z m -167.9,-42.4 c 0,27.8 17.2,39.3 37.8,39.3 h 39.7 v -30.9 h -28.9 c -12,0 -14.5,-4.6 -14.5,-16.4 v -91.3 h 43.4 V 96.8 h -43.4 V 39.9 h -34.1 z m -155.3,39.3 h 34.1 v -72.7 h 11.4 l 58.1,72.7 h 43.1 l -74.1,-92.2 56.9,-77.3 h -38.4 l -46.5,65.3 h -10.5 V 39.9 h -34.1 z M 550.82775,93.7 c -47.7,0 -87,35.9 -87,87.8 0,51.9 39.4,87.8 87,87.8 47.59999,0 86.99999,-35.9 86.99999,-87.8 0,-51.9 -39.4,-87.8 -86.99999,-87.8 z m 0,142.9 c -30.5,0 -52.00001,-23.8 -52.00001,-55.1 0,-31.3 21.50001,-55.1 52.00001,-55.1 30.5,0 51.99999,23.8 51.99999,55.1 0,31.3 -21.49999,55.1 -51.99999,55.1 z"
     id="path3"
     style="fill:#ffffff;fill-opacity:1;stroke-width:10" />
  <path
     fill="current"
     fill-rule="evenodd"
     d="m 197.92774,2.5 -7.4,91.2 c -3.5,-0.4 -7,-0.6 -10.6,-0.6 -4.5,0 -8.9,0.3 -13.2,1 l -4.2,-44.2 c -0.1,-1.4 1,-2.6 2.4,-2.6 h 7.5 l -3.6,-44.7 c -0.1,-1.4 1,-2.6 2.3,-2.6 h 24.5 c 1.4,0 2.5,1.2 2.3,2.6 z m -61.8,4.5 c -0.4,-1.3 -1.8,-2.1 -3.1,-1.6 l -23,8.4 c -1.3,0.5 -1.9,2 -1.3,3.2 l 18.7,40.8 -7.1,2.6 c -1.3,0.5 -1.9,2 -1.3,3.2 l 19.1,40.1 c 6.9,-3.8 14.4,-6.7 22.3,-8.5 L 136.22774,7 Z M 79.727741,32.4 132.62774,107 c -6.7,4.4 -12.8,9.6 -18,15.6 L 82.927741,91.4 c -1,-1 -0.9,-2.6 0.1,-3.5 l 5.8,-4.8 -31.5,-31.9 c -1,-1 -0.9,-2.6 0.2,-3.5 l 18.7,-15.7 c 1.1,-0.9 2.6,-0.7 3.4,0.4 z m -44.4,43.2 c -1.1,-0.8 -2.7,-0.4 -3.4,0.8 l -12.2,21.2 c -0.7,1.2 -0.2,2.7 1,3.3 l 40.6,19.2 -3.8,6.5 a 2.3,2.3 0 0 0 1.1,3.3 l 40.4,18.5 c 2.899999,-7.5 6.799999,-14.5 11.599999,-20.8 z M 5.4277412,133.2 c 0.2,-1.4 1.6,-2.2 2.9,-1.9 l 88.4999998,23.1 c -2.3,7.5 -3.6,15.4 -3.8,23.6 l -44.3,-3.6 a 2.3,2.3 0 0 1 -2.1,-2.8 l 1.3,-7.4 L 3.2277412,160 c -1.4,-0.1 -2.30000004,-1.4 -2.1,-2.8 l 4.2,-24.1 z m -3.3,59.8 c -1.40000004,0.1 -2.30000004,1.4 -2.10000004,2.8 l 4.30000004,24.1 c 0.2,1.4 1.6,2.2 2.9,1.9 l 43.3999998,-11.3 1.3,7.4 c 0.2,1.4 1.6,2.2 2.9,1.9 l 42.8,-11.8 c -2.5,-7.4 -4.1,-15.3 -4.5,-23.4 L 2.0277412,193 Z m 14.1999998,63.4 a 2.36,2.36 0 0 1 1,-3.3 l 82.6,-39.2 c 3.099999,7.4 7.299999,14.3 12.299999,20.5 l -36.199999,25.8 c -1.1,0.8 -2.7,0.5 -3.4,-0.7 l -3.8,-6.6 -36.9,25.5 c -1.1,0.8 -2.7,0.4 -3.4,-0.8 l -12.3,-21.2 z M 116.42774,239.2 52.127741,304.3 c -1,1 -0.9,2.6 0.2,3.5 l 18.8,15.7 c 1.1,0.9 2.6,0.7 3.4,-0.4 l 25.999999,-36.6 5.8,4.9 c 1.1,0.9 2.7,0.7 3.5,-0.5 l 25.2,-36.6 c -6.8,-4.2 -13.1,-9.3 -18.5,-15.1 z m -12.7,104.5 a 2.34,2.34 0 0 1 -1.3,-3.2 l 38.1,-83.2 c 7,3.6 14.6,6.3 22.5,7.8 l -11.2,43 c -0.3,1.3 -1.8,2.1 -3.1,1.6 l -7.1,-2.6 -11.9,43.3 c -0.4,1.3 -1.8,2.1 -3.1,1.6 l -23,-8.4 z m 65.6,-77.5 -7.4,91.2 c -0.1,1.4 1,2.6 2.3,2.6 h 24.5 c 1.4,0 2.5,-1.2 2.3,-2.6 l -3.6,-44.7 h 7.5 c 1.4,0 2.5,-1.2 2.4,-2.6 l -4.2,-44.2 c -4.3,0.7 -8.7,1 -13.2,1 -3.6,0 -7.1,-0.2 -10.6,-0.7 z m 88.2,-246.9 c 0.6,-1.3 0,-2.7 -1.3,-3.2 l -23,-8.4 c -1.3,-0.5 -2.7,0.3 -3.1,1.6 l -11.9,43.3 -7.1,-2.6 c -1.3,-0.5 -2.7,0.3 -3.1,1.6 l -11.2,43 c 8,1.6 15.5,4.3 22.5,7.8 z m 50.2,36.3 -64.3,65.1 a 87.28,87.28 0 0 0 -18.5,-15.1 l 25.2,-36.6 c 0.8,-1.1 2.4,-1.4 3.5,-0.5 l 5.8,4.9 26,-36.6 c 0.8,-1.1 2.4,-1.3 3.4,-0.4 l 18.8,15.7 c 1.1,0.9 1.1,2.5 0.2,3.5 z m 34.8,51.2 c 1.3,-0.6 1.7,-2.1 1,-3.3 l -12.3,-21.2 a 2.46,2.46 0 0 0 -3.4,-0.8 l -36.9,25.5 -3.8,-6.5 c -0.7,-1.2 -2.3,-1.6 -3.4,-0.7 l -36.2,25.8 c 5,6.2 9.1,13.1 12.3,20.5 l 82.6,-39.2 z m 13,33.2 4.2,24.1 c 0.2,1.4 -0.7,2.6 -2.1,2.8 l -91.1,8.5 c -0.4,-8.2 -2,-16 -4.5,-23.4 l 42.8,-11.8 c 1.3,-0.4 2.7,0.5 2.9,1.9 l 1.3,7.4 43.4,-11.3 c 1.3,-0.3 2.7,0.5 2.9,1.9 z m -4.1,88.5 c 1.3,0.3 2.7,-0.5 2.9,-1.9 l 4.2,-24.1 a 2.42,2.42 0 0 0 -2.1,-2.8 l -44.7,-4.2 1.3,-7.4 a 2.42,2.42 0 0 0 -2.1,-2.8 l -44.3,-3.6 c -0.2,8.2 -1.5,16.1 -3.8,23.6 l 88.5,23.1 z m -23.6,55 c -0.7,1.2 -2.3,1.5 -3.4,0.8 l -75.3,-52 c 4.8,-6.3 8.7,-13.3 11.6,-20.8 l 40.4,18.5 c 1.3,0.6 1.8,2.1 1.1,3.3 l -3.8,6.5 40.6,19.2 c 1.2,0.6 1.7,2.1 1,3.3 z m -100.7,-30.7 52.9,74.6 c 0.8,1.1 2.4,1.3 3.4,0.4 l 18.7,-15.7 c 1.1,-0.9 1.1,-2.5 0.2,-3.5 l -31.5,-31.9 5.8,-4.8 c 1.1,-0.9 1.1,-2.5 0.1,-3.5 l -31.7,-31.2 c -5.3,6 -11.3,11.3 -18,15.6 z m -0.5,101.6 c -1.3,0.5 -2.7,-0.3 -3.1,-1.6 l -24.2,-88.2 c 7.9,-1.8 15.4,-4.7 22.3,-8.5 l 19.1,40.1 c 0.6,1.3 0,2.8 -1.3,3.2 l -7.1,2.6 18.7,40.8 c 0.6,1.3 0,2.7 -1.3,3.2 l -23,8.4 z"
     id="path4"
     style="fill:#ffffff;fill-opacity:1;stroke-width:10" />
</svg>
