<?xml version="1.0" encoding="UTF-8" standalone="no"?>
<!-- Generator: Adobe Illustrator 19.1.0, SVG Export Plug-In . SVG Version: 6.00 Build 0)  -->

<svg
   version="1.1"
   id="Layer_2"
   x="0px"
   y="0px"
   viewBox="0 0 1428 352.99999"
   enable-background="new 0 0 142.8 35.2"
   xml:space="preserve"
   sodipodi:docname="onelogin.svg"
   inkscape:version="1.4 (e7c3feb100, 2024-10-09)"
   width="1428"
   height="353"
   xmlns:inkscape="http://www.inkscape.org/namespaces/inkscape"
   xmlns:sodipodi="http://sodipodi.sourceforge.net/DTD/sodipodi-0.dtd"
   xmlns="http://www.w3.org/2000/svg"
   xmlns:svg="http://www.w3.org/2000/svg"><defs
   id="defs1" /><sodipodi:namedview
   id="namedview1"
   pagecolor="#505050"
   bordercolor="#eeeeee"
   borderopacity="1"
   inkscape:showpageshadow="0"
   inkscape:pageopacity="0"
   inkscape:pagecheckerboard="0"
   inkscape:deskcolor="#505050"
   inkscape:zoom="0.86593345"
   inkscape:cx="530.06383"
   inkscape:cy="390.33023"
   inkscape:window-width="3840"
   inkscape:window-height="2079"
   inkscape:window-x="0"
   inkscape:window-y="44"
   inkscape:window-maximized="1"
   inkscape:current-layer="Layer_2" />
<path
   fill="#1C1F2A"
   d="m 473,159 c 3,-20 21,-45 55,-45 32,0 50,23 53,45 z m -44,16 c 0,56 41,94 100,94 39,0 65,-19 80,-36 2,-2 2,-4 0,-6 l -21,-19 c -2,-2 -5,-2 -6,0 -11,9 -27,24 -52,24 -29,0 -50,-18 -55,-41 h 145 c 4,0 6,-2 6,-6 v -9 c 0,-54 -35,-98 -94,-98 -65,0 -103,43 -103,97 z m 222,87 c 0,3 2,5 5,5 h 31 c 3,0 5,-2 5,-5 V 4 c -1,-2 -2,-4 -5,-4 h -32 c -3,0 -4,2 -4,4 z m -286,0 c 0,3 2,5 5,5 h 30 c 3,0 5,-2 5,-5 V 158 c 0,-44 -26,-80 -81,-80 h -1 c -27,0 -47,9 -59,19 V 87 c 0,-3 -2,-5 -5,-5 h -31 c -3,0 -5,2 -5,5 v 174 c 0,3 2,5 5,5 h 31 c 3,0 5,-2 5,-5 v -96 c 0,-30 15,-52 51,-52 36,0 50,22 50,52 z m 585,54 c 14,17 44,37 86,37 59,0 94,-36 94,-93 V 88 c 0,-3 -2,-5 -5,-5 h -29 c -3,0 -5,2 -5,5 v 10 c -13,-11 -30,-19 -58,-19 -53,0 -99,39 -99,96 0,58 45,96 99,96 26,0 43,-9 56,-19 v 12 c 0,32 -19,54 -54,54 -29,0 -48,-16 -61,-28 -2,-2 -6,-2 -8,0 l -16,18 c -3,2 -3,5 0,8 z M 156,174 c 0,32 -24,58 -57,58 -33,0 -55,-28 -55,-58 v -2 c 0,-31 23,-57 55,-57 32,0 57,26 57,59 z M 0,174 c 0,52 42,96 99,96 57,0 99,-44 99,-96 v -2 C 198,120 156,78 99,78 42,78 0,120 0,174 Z m 871,0 c 0,32 -24,58 -57,58 -32,0 -55,-28 -55,-58 v -2 c 0,-31 23,-57 55,-57 33,0 57,26 57,59 z m -156,0 c 0,52 42,96 99,96 57,0 99,-44 99,-96 v -2 c 0,-52 -42,-94 -99,-94 -57,0 -99,42 -99,96 z m 453,88 c 0,3 2,5 5,5 h 31 c 3,0 5,-2 5,-5 V 87 c 0,-2 -1,-4 -4,-4 h -32 c -3,0 -4,2 -4,4 v 175 z m 0,-225 c 0,3 2,5 5,5 h 31 c 3,0 5,-2 5,-5 V 4 c 0,-2 -1,-4 -4,-4 h -32 c -3,0 -4,2 -4,4 v 33 z m 219,225 c 0,3 2,5 5,5 h 31 c 3,0 5,-2 5,-5 V 158 c 0,-44 -26,-80 -81,-80 h -1 c -27,0 -47,9 -59,19 V 87 c 0,-3 -2,-5 -5,-5 h -31 c -3,0 -5,2 -5,5 v 174 c 0,3 2,5 5,5 h 31 c 3,0 5,-2 5,-5 v -96 c 0,-30 15,-52 51,-52 36,0 50,22 50,52 v 97 z m -297,-88 c 0,32 -24,58 -57,58 -33,0 -55,-28 -55,-58 v -2 c 0,-31 23,-57 55,-57 32,0 57,26 57,59 z"
   id="path1"
   style="fill:#ffffff;fill-opacity:1;stroke-width:10" />
</svg>
