<?xml version="1.0" encoding="UTF-8" standalone="no"?>
<svg
   width="1199.05"
   height="319.99899"
   viewBox="0 0 1199.05 319.99899"
   fill="none"
   version="1.1"
   id="svg6"
   sodipodi:docname="yubico.svg"
   inkscape:version="1.4 (e7c3feb100, 2024-10-09)"
   xmlns:inkscape="http://www.inkscape.org/namespaces/inkscape"
   xmlns:sodipodi="http://sodipodi.sourceforge.net/DTD/sodipodi-0.dtd"
   xmlns="http://www.w3.org/2000/svg"
   xmlns:svg="http://www.w3.org/2000/svg">
  <defs
     id="defs6" />
  <sodipodi:namedview
     id="namedview6"
     pagecolor="#505050"
     bordercolor="#eeeeee"
     borderopacity="1"
     inkscape:showpageshadow="0"
     inkscape:pageopacity="0"
     inkscape:pagecheckerboard="0"
     inkscape:deskcolor="#505050"
     inkscape:zoom="1.0304608"
     inkscape:cx="-87.339568"
     inkscape:cy="328.97904"
     inkscape:window-width="3840"
     inkscape:window-height="2079"
     inkscape:window-x="0"
     inkscape:window-y="44"
     inkscape:window-maximized="1"
     inkscape:current-layer="svg6" />
  <path
     d="m 105.118,188.441 41.68,-118.0351 h 60.205 L 105.529,319.999 H 41.983 L 71.0138,251.612 0,70.4059 h 61.4738 z"
     fill="#84BD00"
     id="path1"
     style="fill:#ffffff;fill-opacity:1;stroke-width:10" />
  <path
     d="m 419.473,253.005 h -58.705 v -20.152 c -9.245,7.244 -19.199,13.535 -29.71,18.777 -8.992,4.287 -19.711,6.425 -32.157,6.413 -20.14,0 -35.623,-5.794 -46.449,-17.383 -10.827,-11.588 -16.269,-28.721 -16.329,-51.398 V 70.4059 h 58.651 v 90.5761 c 0,9.218 0.298,16.888 0.893,23.01 0.364,5.292 1.772,10.459 4.145,15.203 1.985,3.933 5.293,7.04 9.344,8.772 4.18,1.846 10.01,2.769 17.49,2.769 5.631,-0.108 11.217,-1.041 16.578,-2.769 6.197,-1.898 12.105,-4.633 17.562,-8.128 V 70.4059 h 58.687 z"
     fill="#84BD00"
     id="path2"
     style="fill:#ffffff;fill-opacity:1;stroke-width:10" />
  <path
     d="m 655.649,159.196 c 0,28.727 -7.932,52.142 -23.796,70.246 -15.864,18.103 -35.647,27.154 -59.348,27.154 -9.039,0.141 -18.055,-0.953 -26.798,-3.251 -7.684,-2.181 -15.053,-5.352 -21.92,-9.433 l -2.448,9.094 H 465.1 V 0 h 58.705 v 89.4327 c 8.476,-6.8405 17.714,-12.6794 27.53,-17.4006 10.162,-4.6155 21.23,-6.8927 32.389,-6.6637 23.058,0 40.816,8.3371 53.274,25.0112 12.458,16.6744 18.675,39.6124 18.651,68.8164 z m -60.312,1.215 c 0,-16.246 -2.763,-28.751 -8.29,-37.517 -5.526,-8.766 -15.364,-13.149 -29.513,-13.149 -5.771,0.037 -11.508,0.885 -17.043,2.519 -5.854,1.648 -11.47,4.05 -16.704,7.146 v 91.559 c 3.886,1.437 7.909,2.473 12.005,3.091 4.52,0.588 9.074,0.863 13.631,0.821 15.483,0 27.001,-4.549 34.551,-13.648 7.551,-9.1 11.345,-22.707 11.381,-40.822 z"
     fill="#84BD00"
     id="path3"
     style="fill:#ffffff;fill-opacity:1;stroke-width:10" />
  <path
     d="M 754.622,44.3948 H 692.666 V 0 h 61.956 z M 752.996,253.006 H 694.292 V 70.4064 h 58.704 z"
     fill="#84BD00"
     id="path4"
     style="fill:#ffffff;fill-opacity:1;stroke-width:10" />
  <path
     d="m 902.902,257.881 c -14.725,0.152 -29.397,-1.761 -43.591,-5.681 -12.534,-3.464 -24.234,-9.439 -34.39,-17.561 -9.754,-8.048 -17.446,-18.307 -22.439,-29.924 -5.3,-12.017 -7.956,-26.107 -7.968,-42.269 0,-17.031 2.847,-31.722 8.54,-44.073 5.4,-11.979 13.561,-22.5094 23.814,-30.7282 10.155,-7.8421 21.765,-13.5924 34.158,-16.9182 13.082,-3.5981 26.593,-5.4011 40.161,-5.3595 11.612,-0.0999 23.19,1.2626 34.461,4.0553 10.131,2.5725 19.99,6.1142 29.442,10.5762 v 49.9154 h -8.289 c -2.263,-1.954 -4.997,-4.228 -8.2,-6.825 -3.67,-2.92 -7.613,-5.481 -11.773,-7.646 -4.652,-2.467 -9.543,-4.454 -14.596,-5.931 -6.05,-1.661 -12.307,-2.443 -18.58,-2.323 -15.602,0 -27.596,4.961 -35.98,14.882 -8.385,9.921 -12.553,23.391 -12.506,40.411 0,17.567 4.3,30.9 12.899,40 8.599,9.099 20.807,13.649 36.623,13.649 6.713,0.084 13.405,-0.764 19.884,-2.519 5.126,-1.366 10.064,-3.358 14.703,-5.932 3.434,-1.992 6.692,-4.275 9.737,-6.824 2.822,-2.394 5.359,-4.716 7.789,-7.003 h 8.289 v 50.022 c -9.309,4.308 -19.005,7.724 -28.959,10.201 -10.877,2.636 -22.038,3.914 -33.229,3.805 z"
     fill="#84BD00"
     id="path5"
     style="fill:#ffffff;fill-opacity:1;stroke-width:10" />
  <path
     d="m 1199.05,161.788 c 0,30.037 -8.75,53.696 -26.26,70.978 -17.51,17.281 -42.09,25.928 -73.75,25.94 -31.65,0 -56.24,-8.647 -73.74,-25.94 -17.51,-17.294 -26.266,-40.953 -26.266,-70.978 0,-30.252 8.816,-53.989 26.436,-71.2106 17.63,-17.222 42.15,-25.8389 73.57,-25.8508 31.87,0 56.51,8.6705 73.91,26.0116 17.4,17.3408 26.1,41.0238 26.1,71.0498 z m -72.03,44.394 c 3.95,-4.976 6.85,-10.701 8.52,-16.828 1.92,-6.563 2.87,-15.644 2.86,-27.245 0.18,-9.08 -0.8,-18.147 -2.93,-26.976 -1.5,-6.301 -4.29,-12.225 -8.18,-17.401 -3.21,-4.251 -7.54,-7.519 -12.51,-9.432 -5.04,-1.874 -10.39,-2.812 -15.77,-2.77 -5.11,-0.075 -10.19,0.692 -15.04,2.269 -4.89,1.907 -9.2,5.046 -12.51,9.112 -4.04,5.132 -6.95,11.062 -8.54,17.4 -2.32,9.078 -3.39,18.431 -3.18,27.798 -0.14,8.727 0.79,17.439 2.77,25.94 1.41,6.4 4.18,12.42 8.13,17.651 3.31,4.102 7.62,7.293 12.5,9.272 10.21,3.803 21.43,3.885 31.7,0.232 4.81,-1.825 9.03,-4.947 12.18,-9.022 z"
     fill="#84BD00"
     id="path6"
     style="fill:#ffffff;fill-opacity:1;stroke-width:10" />
</svg>
